<svg id="mermaidInkSvg" width="100%" xmlns="http://www.w3.org/2000/svg" class="classDiagram" style="max-width: 1041.03125px;" viewBox="0 0 1041.03125 528" role="graphics-document document" aria-roledescription="class" xmlns:xlink="http://www.w3.org/1999/xlink"><style xmlns="http://www.w3.org/1999/xhtml">@import url("https://cdnjs.cloudflare.com/ajax/libs/font-awesome/6.7.2/css/all.min.css");</style><style>#mermaidInkSvg{font-family:"trebuchet ms",verdana,arial,sans-serif;font-size:16px;fill:#333;}@keyframes edge-animation-frame{from{stroke-dashoffset:0;}}@keyframes dash{to{stroke-dashoffset:0;}}#mermaidInkSvg .edge-animation-slow{stroke-dasharray:9,5!important;stroke-dashoffset:900;animation:dash 50s linear infinite;stroke-linecap:round;}#mermaidInkSvg .edge-animation-fast{stroke-dasharray:9,5!important;stroke-dashoffset:900;animation:dash 20s linear infinite;stroke-linecap:round;}#mermaidInkSvg .error-icon{fill:#552222;}#mermaidInkSvg .error-text{fill:#552222;stroke:#552222;}#mermaidInkSvg .edge-thickness-normal{stroke-width:1px;}#mermaidInkSvg .edge-thickness-thick{stroke-width:3.5px;}#mermaidInkSvg .edge-pattern-solid{stroke-dasharray:0;}#mermaidInkSvg .edge-thickness-invisible{stroke-width:0;fill:none;}#mermaidInkSvg .edge-pattern-dashed{stroke-dasharray:3;}#mermaidInkSvg .edge-pattern-dotted{stroke-dasharray:2;}#mermaidInkSvg .marker{fill:#333333;stroke:#333333;}#mermaidInkSvg .marker.cross{stroke:#333333;}#mermaidInkSvg svg{font-family:"trebuchet ms",verdana,arial,sans-serif;font-size:16px;}#mermaidInkSvg p{margin:0;}#mermaidInkSvg g.classGroup text{fill:#9370DB;stroke:none;font-family:"trebuchet ms",verdana,arial,sans-serif;font-size:10px;}#mermaidInkSvg g.classGroup text .title{font-weight:bolder;}#mermaidInkSvg .nodeLabel,#mermaidInkSvg .edgeLabel{color:#131300;}#mermaidInkSvg .edgeLabel .label rect{fill:#ECECFF;}#mermaidInkSvg .label text{fill:#131300;}#mermaidInkSvg .labelBkg{background:#ECECFF;}#mermaidInkSvg .edgeLabel .label span{background:#ECECFF;}#mermaidInkSvg .classTitle{font-weight:bolder;}#mermaidInkSvg .node rect,#mermaidInkSvg .node circle,#mermaidInkSvg .node ellipse,#mermaidInkSvg .node polygon,#mermaidInkSvg .node path{fill:#ECECFF;stroke:#9370DB;stroke-width:1px;}#mermaidInkSvg .divider{stroke:#9370DB;stroke-width:1;}#mermaidInkSvg g.clickable{cursor:pointer;}#mermaidInkSvg g.classGroup rect{fill:#ECECFF;stroke:#9370DB;}#mermaidInkSvg g.classGroup line{stroke:#9370DB;stroke-width:1;}#mermaidInkSvg .classLabel .box{stroke:none;stroke-width:0;fill:#ECECFF;opacity:0.5;}#mermaidInkSvg .classLabel .label{fill:#9370DB;font-size:10px;}#mermaidInkSvg .relation{stroke:#333333;stroke-width:1;fill:none;}#mermaidInkSvg .dashed-line{stroke-dasharray:3;}#mermaidInkSvg .dotted-line{stroke-dasharray:1 2;}#mermaidInkSvg #compositionStart,#mermaidInkSvg .composition{fill:#333333!important;stroke:#333333!important;stroke-width:1;}#mermaidInkSvg #compositionEnd,#mermaidInkSvg .composition{fill:#333333!important;stroke:#333333!important;stroke-width:1;}#mermaidInkSvg #dependencyStart,#mermaidInkSvg .dependency{fill:#333333!important;stroke:#333333!important;stroke-width:1;}#mermaidInkSvg #dependencyStart,#mermaidInkSvg .dependency{fill:#333333!important;stroke:#333333!important;stroke-width:1;}#mermaidInkSvg #extensionStart,#mermaidInkSvg .extension{fill:transparent!important;stroke:#333333!important;stroke-width:1;}#mermaidInkSvg #extensionEnd,#mermaidInkSvg .extension{fill:transparent!important;stroke:#333333!important;stroke-width:1;}#mermaidInkSvg #aggregationStart,#mermaidInkSvg .aggregation{fill:transparent!important;stroke:#333333!important;stroke-width:1;}#mermaidInkSvg #aggregationEnd,#mermaidInkSvg .aggregation{fill:transparent!important;stroke:#333333!important;stroke-width:1;}#mermaidInkSvg #lollipopStart,#mermaidInkSvg .lollipop{fill:#ECECFF!important;stroke:#333333!important;stroke-width:1;}#mermaidInkSvg #lollipopEnd,#mermaidInkSvg .lollipop{fill:#ECECFF!important;stroke:#333333!important;stroke-width:1;}#mermaidInkSvg .edgeTerminals{font-size:11px;line-height:initial;}#mermaidInkSvg .classTitleText{text-anchor:middle;font-size:18px;fill:#333;}#mermaidInkSvg .label-icon{display:inline-block;height:1em;overflow:visible;vertical-align:-0.125em;}#mermaidInkSvg .node .label-icon path{fill:currentColor;stroke:revert;stroke-width:revert;}#mermaidInkSvg :root{--mermaid-font-family:"trebuchet ms",verdana,arial,sans-serif;}#mermaidInkSvg .XRPLService&gt;*{fill:#0D47A1!important;color:#fff!important;}#mermaidInkSvg .XRPLService span{fill:#0D47A1!important;color:#fff!important;}#mermaidInkSvg .TransactionBuilder&gt;*{fill:#fff!important;stroke:#0D47A1!important;}#mermaidInkSvg .TransactionBuilder span{fill:#fff!important;stroke:#0D47A1!important;}#mermaidInkSvg .WalletManager&gt;*{fill:#fff!important;stroke:#0D47A1!important;}#mermaidInkSvg .WalletManager span{fill:#fff!important;stroke:#0D47A1!important;}#mermaidInkSvg .LedgerListener&gt;*{fill:#fff!important;stroke:#0D47A1!important;}#mermaidInkSvg .LedgerListener span{fill:#fff!important;stroke:#0D47A1!important;}</style><g><defs><marker id="mermaidInkSvg_class-aggregationStart" class="marker aggregation class" refX="18" refY="7" markerWidth="190" markerHeight="240" orient="auto"><path d="M 18,7 L9,13 L1,7 L9,1 Z"/></marker></defs><defs><marker id="mermaidInkSvg_class-aggregationEnd" class="marker aggregation class" refX="1" refY="7" markerWidth="20" markerHeight="28" orient="auto"><path d="M 18,7 L9,13 L1,7 L9,1 Z"/></marker></defs><defs><marker id="mermaidInkSvg_class-extensionStart" class="marker extension class" refX="18" refY="7" markerWidth="190" markerHeight="240" orient="auto"><path d="M 1,7 L18,13 V 1 Z"/></marker></defs><defs><marker id="mermaidInkSvg_class-extensionEnd" class="marker extension class" refX="1" refY="7" markerWidth="20" markerHeight="28" orient="auto"><path d="M 1,1 V 13 L18,7 Z"/></marker></defs><defs><marker id="mermaidInkSvg_class-compositionStart" class="marker composition class" refX="18" refY="7" markerWidth="190" markerHeight="240" orient="auto"><path d="M 18,7 L9,13 L1,7 L9,1 Z"/></marker></defs><defs><marker id="mermaidInkSvg_class-compositionEnd" class="marker composition class" refX="1" refY="7" markerWidth="20" markerHeight="28" orient="auto"><path d="M 18,7 L9,13 L1,7 L9,1 Z"/></marker></defs><defs><marker id="mermaidInkSvg_class-dependencyStart" class="marker dependency class" refX="6" refY="7" markerWidth="190" markerHeight="240" orient="auto"><path d="M 5,7 L9,13 L1,7 L9,1 Z"/></marker></defs><defs><marker id="mermaidInkSvg_class-dependencyEnd" class="marker dependency class" refX="13" refY="7" markerWidth="20" markerHeight="28" orient="auto"><path d="M 18,7 L9,13 L14,7 L9,1 Z"/></marker></defs><defs><marker id="mermaidInkSvg_class-lollipopStart" class="marker lollipop class" refX="13" refY="7" markerWidth="190" markerHeight="240" orient="auto"><circle stroke="black" fill="transparent" cx="7" cy="7" r="6"/></marker></defs><defs><marker id="mermaidInkSvg_class-lollipopEnd" class="marker lollipop class" refX="1" refY="7" markerWidth="190" markerHeight="240" orient="auto"><circle stroke="black" fill="transparent" cx="7" cy="7" r="6"/></marker></defs><g class="root"><g class="clusters"/><g class="edgePaths"><path d="M400.068,195.511L366.145,210.426C332.221,225.341,264.374,255.17,230.451,276.252C196.527,297.333,196.527,309.667,196.527,315.833L196.527,322" id="id_XRPLService_TransactionBuilder_1" class="edge-thickness-normal edge-pattern-solid relation" style=";;;" data-edge="true" data-et="edge" data-id="id_XRPLService_TransactionBuilder_1" data-points="W3sieCI6NDE1Ljg1OTM3NSwieSI6MTg4LjU2ODM3OTcxNDcxMDc3fSx7IngiOjE5Ni41MjczNDM3NSwieSI6Mjg1fSx7IngiOjE5Ni41MjczNDM3NSwieSI6MzIyfV0=" marker-start="url(#mermaidInkSvg_class-compositionStart)"/><path d="M553.621,265.25L553.621,268.542C553.621,271.833,553.621,278.417,553.621,289.875C553.621,301.333,553.621,317.667,553.621,325.833L553.621,334" id="id_XRPLService_WalletManager_2" class="edge-thickness-normal edge-pattern-solid relation" style=";;;" data-edge="true" data-et="edge" data-id="id_XRPLService_WalletManager_2" data-points="W3sieCI6NTUzLjYyMTA5Mzc1LCJ5IjoyNDh9LHsieCI6NTUzLjYyMTA5Mzc1LCJ5IjoyODV9LHsieCI6NTUzLjYyMTA5Mzc1LCJ5IjozMzR9XQ==" marker-start="url(#mermaidInkSvg_class-compositionStart)"/><path d="M706.906,202.28L735.357,216.066C763.807,229.853,820.708,257.427,849.159,279.38C877.609,301.333,877.609,317.667,877.609,325.833L877.609,334" id="id_XRPLService_LedgerListener_3" class="edge-thickness-normal edge-pattern-solid relation" style=";;;" data-edge="true" data-et="edge" data-id="id_XRPLService_LedgerListener_3" data-points="W3sieCI6NjkxLjM4MjgxMjUsInkiOjE5NC43NTczMjE0Njk0NzgzfSx7IngiOjg3Ny42MDkzNzUsInkiOjI4NX0seyJ4Ijo4NzcuNjA5Mzc1LCJ5IjozMzR9XQ==" marker-start="url(#mermaidInkSvg_class-compositionStart)"/></g><g class="edgeLabels"><g class="edgeLabel" transform="translate(196.52734375, 285)"><g class="label" data-id="id_XRPLService_TransactionBuilder_1" transform="translate(-16.8984375, -12)"><foreignObject width="33.796875" height="24"><div xmlns="http://www.w3.org/1999/xhtml" class="labelBkg" style="display: table-cell; white-space: nowrap; line-height: 1.5; max-width: 200px; text-align: center;"><span class="edgeLabel"><p>uses</p></span></div></foreignObject></g></g><g class="edgeLabel" transform="translate(553.62109375, 285)"><g class="label" data-id="id_XRPLService_WalletManager_2" transform="translate(-16.8984375, -12)"><foreignObject width="33.796875" height="24"><div xmlns="http://www.w3.org/1999/xhtml" class="labelBkg" style="display: table-cell; white-space: nowrap; line-height: 1.5; max-width: 200px; text-align: center;"><span class="edgeLabel"><p>uses</p></span></div></foreignObject></g></g><g class="edgeLabel" transform="translate(877.609375, 285)"><g class="label" data-id="id_XRPLService_LedgerListener_3" transform="translate(-32.9140625, -12)"><foreignObject width="65.828125" height="24"><div xmlns="http://www.w3.org/1999/xhtml" class="labelBkg" style="display: table-cell; white-space: nowrap; line-height: 1.5; max-width: 200px; text-align: center;"><span class="edgeLabel"><p>manages</p></span></div></foreignObject></g></g></g><g class="nodes"><g class="node default" id="classId-XRPLService-80" transform="translate(553.62109375, 128)"><g class="basic label-container"><path d="M-137.76171875 -120 L137.76171875 -120 L137.76171875 120 L-137.76171875 120" stroke="none" stroke-width="0" fill="#0D47A1" style="fill:#0D47A1;color:#fff"/><path d="M-137.76171875 -120 C-45.355965656873124 -120, 47.04978743625375 -120, 137.76171875 -120 M-137.76171875 -120 C-46.18574005496899 -120, 45.39023864006202 -120, 137.76171875 -120 M137.76171875 -120 C137.76171875 -52.02085560026819, 137.76171875 15.958288799463617, 137.76171875 120 M137.76171875 -120 C137.76171875 -67.13280375150877, 137.76171875 -14.265607503017549, 137.76171875 120 M137.76171875 120 C29.47031069064593 120, -78.82109736870814 120, -137.76171875 120 M137.76171875 120 C36.084237375567994 120, -65.59324399886401 120, -137.76171875 120 M-137.76171875 120 C-137.76171875 51.60265631385245, -137.76171875 -16.7946873722951, -137.76171875 -120 M-137.76171875 120 C-137.76171875 39.48501452960785, -137.76171875 -41.029970940784295, -137.76171875 -120" stroke="#9370DB" stroke-width="1.3" fill="none" stroke-dasharray="0 0" style="fill:#0D47A1;color:#fff"/></g><g class="annotation-group text" transform="translate(0, -96)"/><g class="label-group text" transform="translate(-49.8046875, -96)"><g class="label" style="font-weight: bolder" transform="translate(0,-12)"><foreignObject width="99.609375" height="24"><div xmlns="http://www.w3.org/1999/xhtml" style="display: table-cell; white-space: nowrap; line-height: 1.5; max-width: 139px; text-align: center;"><span class="nodeLabel markdown-node-label" style="fill:#0D47A1;color:#fff"><p>XRPLService</p></span></div></foreignObject></g></g><g class="members-group text" transform="translate(-125.76171875, -48)"><g class="label" style="" transform="translate(0,-12)"><foreignObject width="92.046875" height="24"><div xmlns="http://www.w3.org/1999/xhtml" style="display: table-cell; white-space: nowrap; line-height: 1.5; max-width: 143px; text-align: center;"><span class="nodeLabel markdown-node-label" style="fill:#0D47A1;color:#fff"><p>+Client client</p></span></div></foreignObject></g><g class="label" style="" transform="translate(0,12)"><foreignObject width="98.5625" height="24"><div xmlns="http://www.w3.org/1999/xhtml" style="display: table-cell; white-space: nowrap; line-height: 1.5; max-width: 148px; text-align: center;"><span class="nodeLabel markdown-node-label" style="fill:#0D47A1;color:#fff"><p>+Wallet wallet</p></span></div></foreignObject></g></g><g class="methods-group text" transform="translate(-125.76171875, 24)"><g class="label" style="" transform="translate(0,-12)"><foreignObject width="76.046875" height="24"><div xmlns="http://www.w3.org/1999/xhtml" style="display: table-cell; white-space: nowrap; line-height: 1.5; max-width: 124px; text-align: center;"><span class="nodeLabel markdown-node-label" style="fill:#0D47A1;color:#fff"><p>+connect()</p></span></div></foreignObject></g><g class="label" style="" transform="translate(0,12)"><foreignObject width="96.5" height="24"><div xmlns="http://www.w3.org/1999/xhtml" style="display: table-cell; white-space: nowrap; line-height: 1.5; max-width: 143px; text-align: center;"><span class="nodeLabel markdown-node-label" style="fill:#0D47A1;color:#fff"><p>+disconnect()</p></span></div></foreignObject></g><g class="label" style="" transform="translate(0,36)"><foreignObject width="201.71875" height="24"><div xmlns="http://www.w3.org/1999/xhtml" style="display: table-cell; white-space: nowrap; line-height: 1.5; max-width: 242px; text-align: center;"><span class="nodeLabel markdown-node-label" style="fill:#0D47A1;color:#fff"><p>+submitTransaction(tx_blob)</p></span></div></foreignObject></g><g class="label" style="" transform="translate(0,60)"><foreignObject width="145.375" height="24"><div xmlns="http://www.w3.org/1999/xhtml" style="display: table-cell; white-space: nowrap; line-height: 1.5; max-width: 183px; text-align: center;"><span class="nodeLabel markdown-node-label" style="fill:#0D47A1;color:#fff"><p>+subscribe(streams)</p></span></div></foreignObject></g></g><g class="divider" style="fill:#0D47A1;color:#fff"><path d="M-137.76171875 -72 C-55.44848760262734 -72, 26.864743544745323 -72, 137.76171875 -72 M-137.76171875 -72 C-30.461665188782007 -72, 76.83838837243599 -72, 137.76171875 -72" stroke="#9370DB" stroke-width="1.3" fill="none" stroke-dasharray="0 0" style="fill:#0D47A1;color:#fff"/></g><g class="divider" style="fill:#0D47A1;color:#fff"><path d="M-137.76171875 0 C-45.78875721688222 0, 46.184204316235565 0, 137.76171875 0 M-137.76171875 0 C-55.495186122391516 0, 26.771346505216968 0, 137.76171875 0" stroke="#9370DB" stroke-width="1.3" fill="none" stroke-dasharray="0 0" style="fill:#0D47A1;color:#fff"/></g></g><g class="node default" id="classId-TransactionBuilder-81" transform="translate(196.52734375, 421)"><g class="basic label-container"><path d="M-188.52734375 -99 L188.52734375 -99 L188.52734375 99 L-188.52734375 99" stroke="none" stroke-width="0" fill="#fff" style="fill:#fff;stroke:#0D47A1"/><path d="M-188.52734375 -99 C-40.100872131815066 -99, 108.32559948636987 -99, 188.52734375 -99 M-188.52734375 -99 C-72.34905576075634 -99, 43.829232228487314 -99, 188.52734375 -99 M188.52734375 -99 C188.52734375 -28.620857090576436, 188.52734375 41.75828581884713, 188.52734375 99 M188.52734375 -99 C188.52734375 -20.539962356406676, 188.52734375 57.92007528718665, 188.52734375 99 M188.52734375 99 C43.85943411170237 99, -100.80847552659526 99, -188.52734375 99 M188.52734375 99 C52.805781711433895 99, -82.91578032713221 99, -188.52734375 99 M-188.52734375 99 C-188.52734375 21.8086594855033, -188.52734375 -55.3826810289934, -188.52734375 -99 M-188.52734375 99 C-188.52734375 39.25745072936836, -188.52734375 -20.485098541263284, -188.52734375 -99" stroke="#0D47A1" stroke-width="1.3" fill="none" stroke-dasharray="0 0" style="fill:#fff;stroke:#0D47A1"/></g><g class="annotation-group text" transform="translate(0, -75)"/><g class="label-group text" transform="translate(-72.4609375, -75)"><g class="label" style="font-weight: bolder" transform="translate(0,-12)"><foreignObject width="144.921875" height="24"><div xmlns="http://www.w3.org/1999/xhtml" style="display: table-cell; white-space: nowrap; line-height: 1.5; max-width: 174px; text-align: center;"><span class="nodeLabel markdown-node-label" style="fill:#fff;stroke:#0D47A1"><p>TransactionBuilder</p></span></div></foreignObject></g></g><g class="members-group text" transform="translate(-176.52734375, -27)"/><g class="methods-group text" transform="translate(-176.52734375, 3)"><g class="label" style="" transform="translate(0,-12)"><foreignObject width="209.453125" height="24"><div xmlns="http://www.w3.org/1999/xhtml" style="display: table-cell; white-space: nowrap; line-height: 1.5; max-width: 245px; text-align: center;"><span class="nodeLabel markdown-node-label" style="fill:#fff;stroke:#0D47A1"><p>+buildPayment(amount, dest)</p></span></div></foreignObject></g><g class="label" style="" transform="translate(0,12)"><foreignObject width="212.359375" height="24"><div xmlns="http://www.w3.org/1999/xhtml" style="display: table-cell; white-space: nowrap; line-height: 1.5; max-width: 255px; text-align: center;"><span class="nodeLabel markdown-node-label" style="fill:#fff;stroke:#0D47A1"><p>+buildTrustSet(limit, currency)</p></span></div></foreignObject></g><g class="label" style="" transform="translate(0,36)"><foreignObject width="188.109375" height="24"><div xmlns="http://www.w3.org/1999/xhtml" style="display: table-cell; white-space: nowrap; line-height: 1.5; max-width: 230px; text-align: center;"><span class="nodeLabel markdown-node-label" style="fill:#fff;stroke:#0D47A1"><p>+buildAccountSet(domain)</p></span></div></foreignObject></g><g class="label" style="" transform="translate(0,60)"><foreignObject width="280.59375" height="24"><div xmlns="http://www.w3.org/1999/xhtml" style="display: table-cell; white-space: nowrap; line-height: 1.5; max-width: 313px; text-align: center;"><span class="nodeLabel markdown-node-label" style="fill:#fff;stroke:#0D47A1"><p>+buildEscrowCreate(amount, condition)</p></span></div></foreignObject></g></g><g class="divider" style="fill:#fff;stroke:#0D47A1"><path d="M-188.52734375 -51 C-105.047769251 -51, -21.56819475200001 -51, 188.52734375 -51 M-188.52734375 -51 C-84.21083798978795 -51, 20.105667770424105 -51, 188.52734375 -51" stroke="#0D47A1" stroke-width="1.3" fill="none" stroke-dasharray="0 0" style="fill:#fff;stroke:#0D47A1"/></g><g class="divider" style="fill:#fff;stroke:#0D47A1"><path d="M-188.52734375 -27 C-53.05481525690254 -27, 82.41771323619491 -27, 188.52734375 -27 M-188.52734375 -27 C-67.78457191314638 -27, 52.95819992370724 -27, 188.52734375 -27" stroke="#0D47A1" stroke-width="1.3" fill="none" stroke-dasharray="0 0" style="fill:#fff;stroke:#0D47A1"/></g></g><g class="node default" id="classId-WalletManager-82" transform="translate(553.62109375, 421)"><g class="basic label-container"><path d="M-118.56640625 -87 L118.56640625 -87 L118.56640625 87 L-118.56640625 87" stroke="none" stroke-width="0" fill="#fff" style="fill:#fff;stroke:#0D47A1"/><path d="M-118.56640625 -87 C-64.71405079065943 -87, -10.86169533131887 -87, 118.56640625 -87 M-118.56640625 -87 C-66.26905488265454 -87, -13.971703515309088 -87, 118.56640625 -87 M118.56640625 -87 C118.56640625 -39.39470454046156, 118.56640625 8.210590919076878, 118.56640625 87 M118.56640625 -87 C118.56640625 -22.245433927500585, 118.56640625 42.50913214499883, 118.56640625 87 M118.56640625 87 C52.64811820356357 87, -13.27016984287286 87, -118.56640625 87 M118.56640625 87 C60.94514270480116 87, 3.3238791596023134 87, -118.56640625 87 M-118.56640625 87 C-118.56640625 27.292230229722158, -118.56640625 -32.415539540555685, -118.56640625 -87 M-118.56640625 87 C-118.56640625 28.412329624101226, -118.56640625 -30.17534075179755, -118.56640625 -87" stroke="#0D47A1" stroke-width="1.3" fill="none" stroke-dasharray="0 0" style="fill:#fff;stroke:#0D47A1"/></g><g class="annotation-group text" transform="translate(0, -63)"/><g class="label-group text" transform="translate(-56.1640625, -63)"><g class="label" style="font-weight: bolder" transform="translate(0,-12)"><foreignObject width="112.328125" height="24"><div xmlns="http://www.w3.org/1999/xhtml" style="display: table-cell; white-space: nowrap; line-height: 1.5; max-width: 149px; text-align: center;"><span class="nodeLabel markdown-node-label" style="fill:#fff;stroke:#0D47A1"><p>WalletManager</p></span></div></foreignObject></g></g><g class="members-group text" transform="translate(-106.56640625, -15)"/><g class="methods-group text" transform="translate(-106.56640625, 15)"><g class="label" style="" transform="translate(0,-12)"><foreignObject width="142.140625" height="24"><div xmlns="http://www.w3.org/1999/xhtml" style="display: table-cell; white-space: nowrap; line-height: 1.5; max-width: 184px; text-align: center;"><span class="nodeLabel markdown-node-label" style="fill:#fff;stroke:#0D47A1"><p>+deriveWallet(seed)</p></span></div></foreignObject></g><g class="label" style="" transform="translate(0,12)"><foreignObject width="100.046875" height="24"><div xmlns="http://www.w3.org/1999/xhtml" style="display: table-cell; white-space: nowrap; line-height: 1.5; max-width: 148px; text-align: center;"><span class="nodeLabel markdown-node-label" style="fill:#fff;stroke:#0D47A1"><p>+sign(tx_json)</p></span></div></foreignObject></g><g class="label" style="" transform="translate(0,36)"><foreignObject width="156.96875" height="24"><div xmlns="http://www.w3.org/1999/xhtml" style="display: table-cell; white-space: nowrap; line-height: 1.5; max-width: 202px; text-align: center;"><span class="nodeLabel markdown-node-label" style="fill:#fff;stroke:#0D47A1"><p>+verifySignature(blob)</p></span></div></foreignObject></g></g><g class="divider" style="fill:#fff;stroke:#0D47A1"><path d="M-118.56640625 -39 C-43.50997073490856 -39, 31.546464780182873 -39, 118.56640625 -39 M-118.56640625 -39 C-34.64147977638365 -39, 49.283446697232705 -39, 118.56640625 -39" stroke="#0D47A1" stroke-width="1.3" fill="none" stroke-dasharray="0 0" style="fill:#fff;stroke:#0D47A1"/></g><g class="divider" style="fill:#fff;stroke:#0D47A1"><path d="M-118.56640625 -15 C-63.40695504136438 -15, -8.247503832728754 -15, 118.56640625 -15 M-118.56640625 -15 C-61.58908318865837 -15, -4.611760127316742 -15, 118.56640625 -15" stroke="#0D47A1" stroke-width="1.3" fill="none" stroke-dasharray="0 0" style="fill:#fff;stroke:#0D47A1"/></g></g><g class="node default" id="classId-LedgerListener-83" transform="translate(877.609375, 421)"><g class="basic label-container"><path d="M-155.421875 -87 L155.421875 -87 L155.421875 87 L-155.421875 87" stroke="none" stroke-width="0" fill="#fff" style="fill:#fff;stroke:#0D47A1"/><path d="M-155.421875 -87 C-33.30847019494527 -87, 88.80493461010946 -87, 155.421875 -87 M-155.421875 -87 C-40.46864445432581 -87, 74.48458609134838 -87, 155.421875 -87 M155.421875 -87 C155.421875 -44.066097060602736, 155.421875 -1.1321941212054725, 155.421875 87 M155.421875 -87 C155.421875 -21.259914720640424, 155.421875 44.48017055871915, 155.421875 87 M155.421875 87 C81.83160869343239 87, 8.241342386864773 87, -155.421875 87 M155.421875 87 C88.63791408152738 87, 21.85395316305477 87, -155.421875 87 M-155.421875 87 C-155.421875 46.131070872289804, -155.421875 5.262141744579608, -155.421875 -87 M-155.421875 87 C-155.421875 49.1370718577526, -155.421875 11.274143715505204, -155.421875 -87" stroke="#0D47A1" stroke-width="1.3" fill="none" stroke-dasharray="0 0" style="fill:#fff;stroke:#0D47A1"/></g><g class="annotation-group text" transform="translate(0, -63)"/><g class="label-group text" transform="translate(-57.796875, -63)"><g class="label" style="font-weight: bolder" transform="translate(0,-12)"><foreignObject width="115.59375" height="24"><div xmlns="http://www.w3.org/1999/xhtml" style="display: table-cell; white-space: nowrap; line-height: 1.5; max-width: 148px; text-align: center;"><span class="nodeLabel markdown-node-label" style="fill:#fff;stroke:#0D47A1"><p>LedgerListener</p></span></div></foreignObject></g></g><g class="members-group text" transform="translate(-143.421875, -15)"/><g class="methods-group text" transform="translate(-143.421875, 15)"><g class="label" style="" transform="translate(0,-12)"><foreignObject width="229.046875" height="24"><div xmlns="http://www.w3.org/1999/xhtml" style="display: table-cell; white-space: nowrap; line-height: 1.5; max-width: 263px; text-align: center;"><span class="nodeLabel markdown-node-label" style="fill:#fff;stroke:#0D47A1"><p>+onLedgerClosed(ledger_index)</p></span></div></foreignObject></g><g class="label" style="" transform="translate(0,12)"><foreignObject width="133.25" height="24"><div xmlns="http://www.w3.org/1999/xhtml" style="display: table-cell; white-space: nowrap; line-height: 1.5; max-width: 178px; text-align: center;"><span class="nodeLabel markdown-node-label" style="fill:#fff;stroke:#0D47A1"><p>+onTransaction(tx)</p></span></div></foreignObject></g><g class="label" style="" transform="translate(0,36)"><foreignObject width="182.75" height="24"><div xmlns="http://www.w3.org/1999/xhtml" style="display: table-cell; white-space: nowrap; line-height: 1.5; max-width: 228px; text-align: center;"><span class="nodeLabel markdown-node-label" style="fill:#fff;stroke:#0D47A1"><p>+filterByAccount(account)</p></span></div></foreignObject></g></g><g class="divider" style="fill:#fff;stroke:#0D47A1"><path d="M-155.421875 -39 C-83.10582109083563 -39, -10.789767181671266 -39, 155.421875 -39 M-155.421875 -39 C-54.35512640888767 -39, 46.71162218222466 -39, 155.421875 -39" stroke="#0D47A1" stroke-width="1.3" fill="none" stroke-dasharray="0 0" style="fill:#fff;stroke:#0D47A1"/></g><g class="divider" style="fill:#fff;stroke:#0D47A1"><path d="M-155.421875 -15 C-83.59858219283777 -15, -11.775289385675535 -15, 155.421875 -15 M-155.421875 -15 C-40.05964300584135 -15, 75.3025889883173 -15, 155.421875 -15" stroke="#0D47A1" stroke-width="1.3" fill="none" stroke-dasharray="0 0" style="fill:#fff;stroke:#0D47A1"/></g></g></g></g></g></svg>